<svg xmlns="http://www.w3.org/2000/svg" width="24" height="24" viewBox="0 0 24 24" fill="none" stroke="currentColor" stroke-width="2" stroke-linecap="round" stroke-linejoin="round">
  <path d="M12 2c-1.5 0-3 .5-3 2v3h6v1H7c-2 0-3 1.5-3 3.5S5 15 7 15h2v-2.5c0-1.5 1-3 3-3h4c1.5 0 3-1 3-2.5V4c0-1.5-1.5-2-4-2h-3z"/>
  <path d="M12 22c1.5 0 3-.5 3-2v-3h-6v-1h8c2 0 3-1.5 3-3.5S19 9 17 9h-2v2.5c0 1.5-1 3-3 3H8c-1.5 0-3 1-3 2.5V20c0 1.5 1.5 2 4 2h3z"/>
  <circle cx="9" cy="5" r="0.5" fill="currentColor"/>
  <circle cx="15" cy="19" r="0.5" fill="currentColor"/>
</svg>
