<svg xmlns="http://www.w3.org/2000/svg" viewBox="0 0 48 48" width="48" height="48">
  <!-- Background circle -->
  <circle cx="24" cy="24" r="22" fill="#3d5a80"/>

  <!-- Sound wave arcs -->
  <path d="M 18 24 A 6 6 0 0 1 18 24" stroke="#ee6c4d" stroke-width="2.5" fill="none" stroke-linecap="round"/>
  <path d="M 14 18 Q 20 24 14 30" stroke="#ee6c4d" stroke-width="2.5" fill="none" stroke-linecap="round"/>
  <path d="M 10 14 Q 18 24 10 34" stroke="#ee6c4d" stroke-width="2.5" fill="none" stroke-linecap="round"/>

  <!-- Grid of sound buttons -->
  <rect x="24" y="14" width="6" height="6" rx="1" fill="#f0f0f0"/>
  <rect x="32" y="14" width="6" height="6" rx="1" fill="#f0f0f0"/>
  <rect x="24" y="22" width="6" height="6" rx="1" fill="#f0f0f0"/>
  <rect x="32" y="22" width="6" height="6" rx="1" fill="#f0f0f0"/>
  <rect x="24" y="30" width="6" height="6" rx="1" fill="#f0f0f0"/>
  <rect x="32" y="30" width="6" height="6" rx="1" fill="#f0f0f0"/>

  <!-- Highlight on one button (playing) -->
  <rect x="32" y="22" width="6" height="6" rx="1" fill="#ee6c4d"/>
</svg>
